<svg xmlns="http://www.w3.org/2000/svg" viewBox="0 0 514 156.7">
  <defs>
    <style>
      .cls-1, .cls-2 {
        fill: #9ccb3c;
      }

      .cls-1 {
        fill-rule: evenodd;
      }
    </style>
  </defs>
  <title>awesome-bookmarking</title>
  <g id="Icon">
    <path class="cls-1" d="M20.6,22.1a3.4,3.4,0,1,1,0-6.8h75a3.4,3.4,0,1,1,0,6.8Zm92,13.6H37.7V151.5h74.9Zm-6.8-6.8V8.5H20.6a10.2,10.2,0,0,0,0,20.4ZM10.4,141.3h0a10.2,10.2,0,0,0,10.2,10.2H30.8V35.7H20.6a16.8,16.8,0,0,1-10.2-3.5Zm109,13.7h0a3.4,3.4,0,0,1-3.4,3.4H20.6a17.1,17.1,0,0,1-17-17.1V18.7a17.1,17.1,0,0,1,17-17.1h88.6a3.4,3.4,0,0,1,3.1,2.1,3.1,3.1,0,0,1,.3,1.3V28.9H116a3.3,3.3,0,0,1,2.4,1,3.5,3.5,0,0,1,1,2.4h0ZM58.7,35.7h2.4a6.9,6.9,0,0,1,6.9,7v44L86.7,73.4l18.6,13.3v-44a12.2,12.2,0,0,0-2.3-7m-32.6,0H93.6a6.9,6.9,0,0,1,7,7V77.8l-13.9-10-14,10V42.7A12.2,12.2,0,0,0,70.4,35.7Z" transform="translate(-3.6 -1.6)"/>
  </g>
  <g id="Text">
    <g>
      <path class="cls-2" d="M214,30.1a7.2,7.2,0,0,1,7.2,7.2V59.2h-23a7.1,7.1,0,0,1-7.1-7.1V48.9a7.1,7.1,0,0,1,7.1-7.1h17V38.4a2.9,2.9,0,0,0-3-2.9H192.9V30.1Zm1.2,23.7V47.2H200a2.6,2.6,0,0,0-2.8,2.8v1a2.7,2.7,0,0,0,2.8,2.8Z" transform="translate(-3.6 -1.6)"/>
      <path class="cls-2" d="M251.2,53.8h8.5a2.9,2.9,0,0,0,3-3V30.1h6.1V52a7.3,7.3,0,0,1-7.3,7.2H227.7V30.1h6.1V53.8h11.4V30.1h6Z" transform="translate(-3.6 -1.6)"/>
      <path class="cls-2" d="M274.7,37.3a7.2,7.2,0,0,1,7.2-7.2h16.4a7.1,7.1,0,0,1,7.1,7.1v3.2a7,7,0,0,1-7.1,7H280.7v3.5a2.9,2.9,0,0,0,3,2.9h20.5v5.4H281.9a7.2,7.2,0,0,1-7.2-7.2Zm9-1.8a2.9,2.9,0,0,0-3,2.9v3.8h15.8a2.6,2.6,0,0,0,2.8-2.8V38.3a2.6,2.6,0,0,0-2.8-2.8Z" transform="translate(-3.6 -1.6)"/>
      <path class="cls-2" d="M333.5,42a7.1,7.1,0,0,1,7.1,7.1v3a7.1,7.1,0,0,1-7.1,7.1H311.2V53.8h20.6a2.7,2.7,0,0,0,2.8-2.8v-.9a2.7,2.7,0,0,0-2.8-2.8H318a7.2,7.2,0,0,1-7.2-7.1v-3a7.1,7.1,0,0,1,7.2-7.1h21.2v5.4H319.7a2.6,2.6,0,0,0-2.8,2.8v.8a2.8,2.8,0,0,0,2.8,2.9Z" transform="translate(-3.6 -1.6)"/>
      <path class="cls-2" d="M369.7,30.1a7.3,7.3,0,0,1,7.3,7.2V52a7.3,7.3,0,0,1-7.3,7.2H353.3A7.3,7.3,0,0,1,346,52V37.3a7.3,7.3,0,0,1,7.3-7.2Zm1.2,8.4a2.9,2.9,0,0,0-2.9-3H355.1a2.9,2.9,0,0,0-3,3V50.8a2.9,2.9,0,0,0,3,3H368a2.9,2.9,0,0,0,2.9-3Z" transform="translate(-3.6 -1.6)"/>
      <path class="cls-2" d="M419.9,30.1a7.3,7.3,0,0,1,7.3,7.2V59.2h-6.1V38.5a2.9,2.9,0,0,0-3-3H408V59.2h-6.1V35.5h-13V59.2h-6V30.1Z" transform="translate(-3.6 -1.6)"/>
      <path class="cls-2" d="M433.1,37.3a7.2,7.2,0,0,1,7.2-7.2h16.4a7.1,7.1,0,0,1,7.1,7.1v3.2a7,7,0,0,1-7.1,7H439.1v3.5a2.9,2.9,0,0,0,3,2.9h20.5v5.4H440.3a7.2,7.2,0,0,1-7.2-7.2Zm9-1.8a2.9,2.9,0,0,0-3,2.9v3.8h15.8a2.6,2.6,0,0,0,2.8-2.8V38.3a2.6,2.6,0,0,0-2.8-2.8Z" transform="translate(-3.6 -1.6)"/>
      <path class="cls-2" d="M146.6,91.2h17.1a7.3,7.3,0,0,1,7.3,7.2v14.7a7.3,7.3,0,0,1-7.3,7.3H140.5V81.3h6.1Zm18.3,8.4a2.9,2.9,0,0,0-3-2.9H146.6v18.2h15.3a2.9,2.9,0,0,0,3-3Z" transform="translate(-3.6 -1.6)"/>
      <path class="cls-2" d="M200,91.2a7.3,7.3,0,0,1,7.2,7.2v14.7a7.3,7.3,0,0,1-7.2,7.3H183.5a7.3,7.3,0,0,1-7.2-7.3V98.4a7.3,7.3,0,0,1,7.2-7.2Zm1.1,8.4a2.8,2.8,0,0,0-2.9-2.9H185.3a2.9,2.9,0,0,0-3,2.9v12.3a2.9,2.9,0,0,0,3,3h12.9a2.9,2.9,0,0,0,2.9-3Z" transform="translate(-3.6 -1.6)"/>
      <path class="cls-2" d="M236.2,91.2a7.2,7.2,0,0,1,7.2,7.2v14.7a7.3,7.3,0,0,1-7.2,7.3H219.7a7.3,7.3,0,0,1-7.2-7.3V98.4a7.3,7.3,0,0,1,7.2-7.2Zm1.2,8.4a2.9,2.9,0,0,0-3-2.9H221.5a2.9,2.9,0,0,0-3,2.9v12.3a3,3,0,0,0,3,3h12.9a3,3,0,0,0,3-3Z" transform="translate(-3.6 -1.6)"/>
      <path class="cls-2" d="M279.5,91.2l-17.2,14.1,18.5,15.1h-7.9l-17.5-14.3v14.3h-6.1V81.3h6.1v23.3l16.3-13.4Z" transform="translate(-3.6 -1.6)"/>
      <path class="cls-2" d="M321.9,91.2a7.3,7.3,0,0,1,7.3,7.2v22h-6.1V99.6a2.9,2.9,0,0,0-3-2.9H310v23.7h-6.1V96.7h-13v23.7h-6V91.2Z" transform="translate(-3.6 -1.6)"/>
      <path class="cls-2" d="M357.9,91.2a7.2,7.2,0,0,1,7.3,7.2v22h-23a7.1,7.1,0,0,1-7.1-7.1v-3.2a7,7,0,0,1,7.1-7.1h16.9V99.6a2.9,2.9,0,0,0-2.9-3H336.9V91.2Zm1.2,23.8v-6.7H344a2.7,2.7,0,0,0-2.9,2.8v1A2.8,2.8,0,0,0,344,115Z" transform="translate(-3.6 -1.6)"/>
      <path class="cls-2" d="M395.3,91.2v5.5H380.7a2.8,2.8,0,0,0-2.9,2.9v20.8h-6.1v-22a7.3,7.3,0,0,1,7.2-7.2Z" transform="translate(-3.6 -1.6)"/>
      <path class="cls-2" d="M429.9,91.2l-17.2,14.1,18.5,15.1h-7.9l-17.6-14.3v14.3h-6V81.3h6v23.3l16.4-13.4Z" transform="translate(-3.6 -1.6)"/>
      <path class="cls-2" d="M441.3,81.7v5.9h-6.1V81.7Zm0,9.5v29.2h-6.1V91.2Z" transform="translate(-3.6 -1.6)"/>
      <path class="cls-2" d="M470.9,91.2a7.3,7.3,0,0,1,7.3,7.2v22h-6.1V99.6a2.8,2.8,0,0,0-2.9-2.9H453.9v23.7h-6.1V91.2Z" transform="translate(-3.6 -1.6)"/>
      <path class="cls-2" d="M489.2,129.9v-5.4h16.2a2.8,2.8,0,0,0,2.9-2.9v-1.2h-17a7.3,7.3,0,0,1-7.3-7.3V98.4a7.3,7.3,0,0,1,7.3-7.2h23.1v31.5a7.2,7.2,0,0,1-7.2,7.2Zm19.1-15V96.7H493.1a2.9,2.9,0,0,0-3,2.9v12.3a2.9,2.9,0,0,0,3,3Z" transform="translate(-3.6 -1.6)"/>
    </g>
  </g>
</svg>
